HIERARCHY
ROOT Hips
{
    OFFSET 0.000000 0.000000 0.000000
    CHANNELS 6 Xposition Yposition Zposition Zrotation Xrotation Yrotation
    JOINT Spine
    {
        OFFSET -0.000000 14.517291 0.000000
        CHANNELS 3 Zrotation Xrotation Yrotation
        JOINT Spine1
        {
            OFFSET -0.000000 37.558300 0.000000
            CHANNELS 3 Zrotation Xrotation Yrotation
            JOINT Neck
            {
                OFFSET -0.000000 37.404057 3.400369
                CHANNELS 3 Zrotation Xrotation Yrotation
                JOINT Head
                {
                    OFFSET -0.000000 24.785618 -3.540803
                    CHANNELS 3 Zrotation Xrotation Yrotation
                    End Site
                    {
                        OFFSET -0.000000 35.408028 0.000000
                    }
                }
            }
            JOINT LeftShoulder
            {
                OFFSET 6.992933 33.973492 -0.192664
                CHANNELS 3 Zrotation Xrotation Yrotation
                JOINT LeftArm
                {
                    OFFSET 21.527611 0.000000 0.000000
                    CHANNELS 3 Zrotation Xrotation Yrotation
                    JOINT LeftForeArm
                    {
                        OFFSET 56.353916 0.000000 0.000000
                        CHANNELS 3 Zrotation Xrotation Yrotation
                        JOINT LeftHand
                        {
                            OFFSET 47.774071 0.000000 0.000000
                            CHANNELS 3 Zrotation Xrotation Yrotation
                            End Site
                            {
                                OFFSET 26.556021 0.000000 0.000000
                            }
                        }
                    }
                }
            }
            JOINT RightShoulder
            {
                OFFSET -7.065357 33.973492 -0.192664
                CHANNELS 3 Zrotation Xrotation Yrotation
                JOINT RightArm
                {
                    OFFSET -21.527611 0.000000 0.000000
                    CHANNELS 3 Zrotation Xrotation Yrotation
                    JOINT RightForeArm
                    {
                        OFFSET -56.353916 0.000000 0.000000
                        CHANNELS 3 Zrotation Xrotation Yrotation
                        JOINT RightHand
                        {
                            OFFSET -47.774071 0.000000 0.000000
                            CHANNELS 3 Zrotation Xrotation Yrotation
                            End Site
                            {
                                OFFSET -26.556021 0.000000 0.000000
                            }
                        }
                    }
                }
            }
        }
    }
    JOINT LeftUpLeg
    {
        OFFSET 17.704014 0.000000 0.000000
        CHANNELS 3 Zrotation Xrotation Yrotation
        JOINT LeftLeg
        {
            OFFSET -0.000000 -81.181816 0.000000
            CHANNELS 3 Zrotation Xrotation Yrotation
            JOINT LeftFoot
            {
                OFFSET -0.000000 -62.821102 0.000000
                CHANNELS 3 Zrotation Xrotation Yrotation
                JOINT LeftToeBase
                {
                    OFFSET -0.000000 -11.507608 26.556021
                    CHANNELS 3 Zrotation Xrotation Yrotation
                    End Site
                    {
                        OFFSET -0.000000 0.000000 7.081605
                    }
                }
            }
        }
    }
    JOINT RightUpLeg
    {
        OFFSET -17.704014 0.000000 0.000000
        CHANNELS 3 Zrotation Xrotation Yrotation
        JOINT RightLeg
        {
            OFFSET -0.000000 -81.181816 0.000000
            CHANNELS 3 Zrotation Xrotation Yrotation
            JOINT RightFoot
            {
                OFFSET -0.000000 -62.821102 0.000000
                CHANNELS 3 Zrotation Xrotation Yrotation
                JOINT RightToeBase
                {
                    OFFSET -0.000000 -11.507608 26.556021
                    CHANNELS 3 Zrotation Xrotation Yrotation
                    End Site
                    {
                        OFFSET -0.000000 0.000000 7.081605
                    }
                }
            }
        }
    }
}
MOTION
Frames:    12
Frame Time:    0.008333
-10.071426    157.892624    -91.716599    -2.986184    -6.116546    48.610344    1.185937    -2.616744    2.281758    -8.985250    -0.188401    0.732452    3.513642    11.005029    -22.248217    18.925615    -6.095401    -19.795027    0.285923    7.037682    -9.093767    -45.613243    -3.918724    -36.807056    34.334347    -49.019360    -58.106812    -9.974773    -33.572495    -9.811369    -18.120398    -5.413173    -5.475405    12.811560    -28.736826    48.594032    -6.782521    -3.489099    12.229503    -9.320333    -5.554402    33.358974    23.599577    0.843228    -4.091653    -9.646250    23.109522    -19.742191    -3.847274    -23.904882    41.296021    0.000000    0.000000    0.000000    -11.232393    -14.056067    -23.252226    5.294874    17.652426    -18.903507    6.831114    9.048265    -9.669418    0.000000    0.000000    0.000000    
-10.080159    157.891479    -91.719185    -2.988256    -6.114434    48.600731    1.181299    -2.624247    2.281833    -8.970604    -0.178537    0.733335    3.521792    11.010024    -22.242842    18.908100    -6.111807    -19.790230    0.282621    7.037027    -9.101467    -45.607521    -3.916475    -36.803432    34.295364    -48.988926    -58.136997    -9.994788    -33.541656    -9.820412    -18.120520    -5.366957    -5.497054    12.843997    -28.770283    48.657127    -6.777280    -3.460136    12.230303    -9.338849    -5.532243    33.366184    23.598770    0.845603    -4.072789    -9.636330    23.107525    -19.766199    -3.831904    -23.901297    41.304733    0.000000    0.000000    0.000000    -11.229630    -14.059853    -23.252083    5.292113    17.647488    -18.850914    6.844020    9.045325    -9.694508    0.000000    0.000000    0.000000    
-10.085721    157.888214    -91.725121    -2.988126    -6.110606    48.590271    1.182647    -2.631164    2.278698    -8.968281    -0.170967    0.732781    3.511693    11.017714    -22.241856    18.923767    -6.109529    -19.785835    0.284585    7.037697    -9.093434    -45.590714    -3.859651    -36.816696    34.356285    -48.987679    -58.070889    -10.035561    -33.528343    -9.817825    -18.128866    -5.410199    -5.454031    12.823429    -28.720526    48.604946    -6.764648    -3.372667    12.251344    -9.435829    -5.477646    33.403809    23.594612    0.848134    -4.045212    -9.628422    23.108763    -19.768867    -3.846105    -23.912588    41.290649    0.000000    0.000000    0.000000    -11.231633    -14.070518    -23.262829    5.288779    17.651455    -18.857126    6.847510    9.046154    -9.688542    0.000000    0.000000    0.000000    
-10.094213    157.886002    -91.736687    -2.994609    -6.093791    48.575504    1.178254    -2.640819    2.283627    -8.962351    -0.177931    0.733872    3.498352    11.041057    -22.245920    18.943634    -6.116913    -19.783754    0.277794    7.049198    -9.091253    -45.566864    -3.805108    -36.831303    34.361000    -48.974518    -58.022175    -10.031794    -33.524456    -9.844296    -18.132792    -5.363855    -5.463274    12.854934    -28.751675    48.648872    -6.757075    -3.354885    12.260096    -9.433135    -5.461202    33.423584    23.584171    0.835529    -4.030396    -9.630696    23.107819    -19.756329    -3.845991    -23.900890    41.272297    0.000000    0.000000    0.000000    -11.242645    -14.100718    -23.254852    5.293954    17.663708    -18.841133    6.823987    9.043561    -9.697258    0.000000    0.000000    0.000000    
-10.101005    157.883591    -91.742393    -2.992545    -6.089909    48.564350    1.172508    -2.645445    2.285557    -8.959424    -0.162527    0.735751    3.500332    11.038165    -22.251003    18.954901    -6.109776    -19.788353    0.287593    7.040848    -9.087622    -45.568687    -3.772418    -36.863098    34.315502    -48.961418    -58.038254    -10.013045    -33.532310    -9.776325    -18.134874    -5.360672    -5.470180    12.874954    -28.755438    48.665398    -6.744883    -3.323097    12.272888    -9.470783    -5.442283    33.434036    23.577820    0.838111    -4.016966    -9.627405    23.103634    -19.749029    -3.859024    -23.917521    41.279434    0.000000    0.000000    0.000000    -11.243842    -14.109859    -23.257395    5.287610    17.664097    -18.836256    6.831028    9.051735    -9.695359    0.000000    0.000000    0.000000    
-10.110033    157.880005    -91.746376    -2.999120    -6.090064    48.551804    1.173008    -2.650742    2.286419    -8.951379    -0.158562    0.736368    3.492198    11.052564    -22.255461    18.981224    -6.108249    -19.787472    0.284141    7.037372    -9.084073    -45.558907    -3.706899    -36.888233    34.357315    -48.976883    -58.012821    -9.915854    -33.548992    -9.733655    -18.131907    -5.347262    -5.457580    12.874218    -28.757236    48.665852    -6.746658    -3.311040    12.281943    -9.460383    -5.426932    33.439938    23.584806    0.826494    -4.023889    -9.643784    23.121086    -19.724789    -3.853877    -23.922506    41.280682    0.000000    0.000000    0.000000    -11.233729    -14.125312    -23.248920    5.277130    17.672657    -18.808414    6.842457    9.040416    -9.717193    0.000000    0.000000    0.000000    
-10.114159    157.877991    -91.751167    -2.992941    -6.091761    48.548264    1.173689    -2.647343    2.284655    -8.958530    -0.148514    0.736567    3.490293    11.044999    -22.260565    18.996603    -6.080581    -19.794645    0.298456    7.037272    -9.084419    -45.552380    -3.643498    -36.931435    34.327099    -49.002087    -57.989075    -9.960739    -33.604073    -9.700685    -18.126017    -5.326756    -5.465289    12.888848    -28.770061    48.685596    -6.731047    -3.277356    12.286368    -9.498203    -5.407026    33.449524    23.581558    0.822737    -4.042637    -9.648068    23.134819    -19.728020    -3.844054    -23.923923    41.294056    0.000000    0.000000    0.000000    -11.235387    -14.121706    -23.249229    5.280923    17.667845    -18.833145    6.811362    9.041406    -9.683905    0.000000    0.000000    0.000000    
-10.120729    157.875854    -91.758469    -2.994638    -6.092187    48.537720    1.179170    -2.652612    2.283587    -8.964040    -0.130708    0.737515    3.490220    11.023411    -22.255096    19.006271    -6.048593    -19.792988    0.304221    7.015791    -9.083270    -45.543999    -3.559186    -36.966270    34.344486    -49.035789    -57.953121    -9.962350    -33.651527    -9.681384    -18.121805    -5.320087    -5.481226    12.902691    -28.772499    48.715714    -6.734575    -3.312131    12.291390    -9.434669    -5.418170    33.408195    23.585529    0.815218    -4.075149    -9.673147    23.146509    -19.702690    -3.831561    -23.934856    41.315258    0.000000    0.000000    0.000000    -11.230499    -14.125087    -23.225962    5.282195    17.657520    -18.848688    6.830631    9.050210    -9.685174    0.000000    0.000000    0.000000    
-10.124405    157.873505    -91.765282    -2.996092    -6.091917    48.532734    1.185163    -2.657302    2.286209    -8.971856    -0.122983    0.738948    3.500156    11.014103    -22.254999    19.000139    -6.019737    -19.799524    0.312193    7.008219    -9.103508    -45.534054    -3.467718    -37.003807    34.337166    -49.077106    -57.921944    -9.851771    -33.733299    -9.587558    -18.113987    -5.310947    -5.474616    12.898956    -28.785086    48.705864    -6.706870    -3.293730    12.300007    -9.422249    -5.400364    33.428471    23.586702    0.804959    -4.092663    -9.684743    23.165606    -19.698959    -3.832973    -23.951759    41.334492    0.000000    0.000000    0.000000    -11.228575    -14.126641    -23.225498    5.281475    17.649235    -18.852657    6.821290    9.053194    -9.681083    0.000000    0.000000    0.000000    
-10.131751    157.870224    -91.771133    -2.994816    -6.097929    48.527683    1.188081    -2.651415    2.284381    -8.970571    -0.121468    0.738451    3.501209    11.012382    -22.256348    18.993019    -5.980177    -19.808872    0.309877    6.999596    -9.119253    -45.528217    -3.417890    -37.043922    34.282314    -49.091061    -57.942726    -9.897264    -33.768932    -9.588157    -18.115868    -5.326504    -5.461069    12.900403    -28.772726    48.691959    -6.692574    -3.252374    12.304020    -9.427380    -5.361231    33.420170    23.592207    0.802216    -4.104363    -9.697370    23.173870    -19.679520    -3.817727    -23.948751    41.341755    0.000000    0.000000    0.000000    -11.219561    -14.121994    -23.210262    5.279615    17.635937    -18.859106    6.822606    9.061460    -9.675817    0.000000    0.000000    0.000000    
-10.135077    157.868988    -91.770363    -2.994916    -6.107954    48.528442    1.197279    -2.662278    2.281063    -8.977519    -0.102306    0.738767    3.513116    11.015998    -22.251499    18.978489    -5.956187    -19.810873    0.313629    7.015166    -9.139906    -45.500534    -3.350345    -37.110107    34.249004    -49.116039    -57.969952    -9.758818    -33.826427    -9.474883    -18.110243    -5.315502    -5.450905    12.908058    -28.784719    48.690258    -6.681038    -3.214823    12.300792    -9.424910    -5.325459    33.431465    23.605381    0.802529    -4.122995    -9.711958    23.186604    -19.676582    -3.811343    -23.960936    41.345543    0.000000    0.000000    0.000000    -11.204656    -14.106481    -23.197321    5.279081    17.609966    -18.874985    6.811803    9.071344    -9.671513    0.000000    0.000000    0.000000    
-10.140059    157.867111    -91.777397    -2.993495    -6.107395    48.525223    1.197175    -2.663452    2.282711    -8.983094    -0.099582    0.739483    3.535607    10.998528    -22.244026    18.942204    -5.913544    -19.818445    0.324839    7.014290    -9.166113    -45.475716    -3.241752    -37.164421    34.241707    -49.147209    -57.939857    -9.690706    -33.890476    -9.396204    -18.101753    -5.298460    -5.465892    12.918771    -28.783976    48.715599    -6.681375    -3.178669    12.286121    -9.418189    -5.289021    33.440563    23.604523    0.806075    -4.114330    -9.717690    23.178991    -19.658623    -3.812088    -23.958033    41.332439    0.000000    0.000000    0.000000    -11.202124    -14.107053    -23.197578    5.270063    17.605051    -18.864811    6.820270    9.075425    -9.670527    0.000000    0.000000    0.000000    
